{
    "asset": {
        "generator": "COLLADA2GLTF",
        "version": "2.0"
    },
    "scene": 0,
    "scenes": [
        {
            "nodes": [
                0
            ]
        }
    ],
    "nodes": [
        {
            "children": [
                1
            ],
            "matrix": [
                1.0,
                0.0,
                0.0,
                0.0,
                0.0,
                0.0,
                -1.0,
                0.0,
                0.0,
                1.0,
                0.0,
                0.0,
                0.0,
                0.0,
                0.0,
                1.0
            ]
        },
        {
            "children": [
                2
            ],
            "matrix": [
                1.0,
                0.0,
                0.0,
                0.0,
                0.0,
                4.4896641959724089e-11,
                1.0,
                0.0,
                0.0,
                -1.0,
                4.4896641959724089e-11,
                0.0,
                77.4233169555664,
                28.1795597076416,
                21.951709747314458,
                1.0
            ]
        },
        {
            "mesh": 0,
            "matrix": [
                1.0,
                0.0,
                0.0,
                0.0,
                0.0,
                1.0,
                0.0,
                0.0,
                0.0,
                0.0,
                1.0,
                0.0,
                77.40995788574219,
                6.02288818359375,
                -28.17490959167481,
                1.0
            ]
        }
    ],
    "meshes": [
        {
            "primitives": [
                {
                    "attributes": {
                        "NORMAL": 1,
                        "POSITION": 2
                    },
                    "indices": 0,
                    "mode": 4,
                    "material": 0
                }
            ],
            "name": "Line006"
        }
    ],
    "accessors": [
        {
            "bufferView": 0,
            "byteOffset": 0,
            "componentType": 5123,
            "count": 6900,
            "max": [
                4291
            ],
            "min": [
                0
            ],
            "type": "SCALAR"
        },
        {
            "bufferView": 1,
            "byteOffset": 0,
            "componentType": 5126,
            "count": 4292,
            "max": [
                0.9659271240234376,
                1.0,
                0.9659271240234376
            ],
            "min": [
                -0.9659271240234376,
                -1.0,
                -0.9659271240234376
            ],
            "type": "VEC3"
        },
        {
            "bufferView": 1,
            "byteOffset": 51504,
            "componentType": 5126,
            "count": 4292,
            "max": [
                0.6644479036331177,
                16.584529876708986,
                106.24929809570313
            ],
            "min": [
                -155.4843902587891,
                -28.630279541015626,
                -49.89950942993164
            ],
            "type": "VEC3"
        }
    ],
    "materials": [
        {
            "pbrMetallicRoughness": {
                "baseColorFactor": [
                    0.3450979888439179,
                    0.5647059082984924,
                    0.882352888584137,
                    1.0
                ],
                "metallicFactor": 0.0
            },
            "name": "ColorEffectR88G144B225"
        }
    ],
    "bufferViews": [
        {
            "buffer": 0,
            "byteOffset": 103008,
            "byteLength": 13800,
            "target": 34963
        },
        {
            "buffer": 0,
            "byteOffset": 0,
            "byteLength": 103008,
            "byteStride": 12,
            "target": 34962
        }
    ],
    "buffers": [
        {
            "byteLength": 116808,
            "uri": "data:application/octet-stream;base64,"
        }
    ]
}
