{
    "asset": {
        "generator": "COLLADA2GLTF",
        "version": "2.0"
    },
    "scene": 0,
    "scenes": [
        {
            "nodes": [
                0
            ]
        }
    ],
    "nodes": [
        {
            "children": [
                1
            ],
            "matrix": [
                1.0,
                0.0,
                0.0,
                0.0,
                0.0,
                0.0,
                -1.0,
                0.0,
                0.0,
                1.0,
                0.0,
                0.0,
                0.0,
                0.0,
                0.0,
                1.0
            ]
        },
        {
            "children": [
                2
            ],
            "matrix": [
                -1.3311316138242549e-7,
                1.0,
                0.0,
                0.0,
                -1.0,
                -1.3311316138242549e-7,
                0.0,
                0.0,
                0.0,
                0.0,
                1.0,
                0.0,
                77.4852066040039,
                19.039730072021489,
                3.4410760402679445,
                1.0
            ]
        },
        {
            "mesh": 0,
            "matrix": [
                1.0,
                0.0,
                0.0,
                0.0,
                0.0,
                1.0,
                0.0,
                0.0,
                0.0,
                0.0,
                1.0,
                0.0,
                -22.479188919067384,
                -48.14204025268555,
                -28.69723892211914,
                1.0
            ]
        }
    ],
    "meshes": [
        {
            "primitives": [
                {
                    "attributes": {
                        "COLOR_0": 1,
                        "NORMAL": 2,
                        "POSITION": 3
                    },
                    "indices": 0,
                    "mode": 4
                }
            ],
            "name": "____15"
        }
    ],
    "accessors": [
        {
            "bufferView": 0,
            "byteOffset": 0,
            "componentType": 5123,
            "count": 720,
            "max": [
                479
            ],
            "min": [
                0
            ],
            "type": "SCALAR"
        },
        {
            "bufferView": 1,
            "byteOffset": 0,
            "componentType": 5126,
            "count": 480,
            "max": [
                1.0,
                1.0,
                1.0
            ],
            "min": [
                1.0,
                1.0,
                1.0
            ],
            "type": "VEC3"
        },
        {
            "bufferView": 1,
            "byteOffset": 5760,
            "componentType": 5126,
            "count": 480,
            "max": [
                0.9063119292259216,
                0.9063149094581604,
                0.00000345573994309234
            ],
            "min": [
                -0.906317412853241,
                -0.9063119292259216,
                -0.000002569639946159441
            ],
            "type": "VEC3"
        },
        {
            "bufferView": 1,
            "byteOffset": 11520,
            "componentType": 5126,
            "count": 480,
            "max": [
                90.2333755493164,
                125.02100372314452,
                36.998077392578128
            ],
            "min": [
                -45.27499008178711,
                -28.736909866333009,
                17.979949951171876
            ],
            "type": "VEC3"
        }
    ],
    "materials": [
        {
            "pbrMetallicRoughness": {
                "baseColorTexture": {
                    "index": 0
                },
                "metallicFactor": 0.0
            },
            "emissiveFactor": [
                0.0,
                0.0,
                0.0
            ],
            "occlusionTexture": {
                "index": 0
            },
            "name": "Material__1601444746"
        }
    ],
    "textures": [
        {
            "sampler": 0,
            "source": 0
        }
    ],
    "images": [
        {
            "uri": "data:image/jpeg;base64,"
        }
    ],
    "samplers": [
        {
            "magFilter": 9729,
            "minFilter": 9986,
            "wrapS": 10497,
            "wrapT": 10497
        }
    ],
    "bufferViews": [
        {
            "buffer": 0,
            "byteOffset": 17280,
            "byteLength": 1440,
            "target": 34963
        },
        {
            "buffer": 0,
            "byteOffset": 0,
            "byteLength": 17280,
            "byteStride": 12,
            "target": 34962
        }
    ],
    "buffers": [
        {
            "byteLength": 18720,
            "uri": "data:application/octet-stream;base64,"
        }
    ]
}
