{
    "asset": {
        "generator": "COLLADA2GLTF",
        "version": "2.0"
    },
    "scene": 0,
    "scenes": [
        {
            "nodes": [
                0
            ]
        }
    ],
    "nodes": [
        {
            "children": [
                4,
                3,
                2,
                1
            ],
            "matrix": [
                1.0,
                0.0,
                0.0,
                0.0,
                0.0,
                0.0,
                -1.0,
                0.0,
                0.0,
                1.0,
                0.0,
                0.0,
                0.0,
                0.0,
                0.0,
                1.0
            ]
        },
        {
            "mesh": 0,
            "matrix": [
                1.0,
                0.0,
                0.0,
                0.0,
                0.0,
                1.0,
                0.0,
                0.0,
                0.0,
                0.0,
                1.0,
                0.0,
                -0.0081634521484375,
                -0.006450652610510588,
                0.5890945196151733,
                1.0
            ]
        },
        {
            "mesh": 1,
            "matrix": [
                1.0,
                0.0,
                0.0,
                0.0,
                0.0,
                1.0,
                0.0,
                0.0,
                0.0,
                0.0,
                1.0,
                0.0,
                -0.0081634521484375,
                -0.006450652610510588,
                0.5890945196151733,
                1.0
            ]
        },
        {
            "mesh": 2,
            "matrix": [
                1.0,
                0.0,
                0.0,
                0.0,
                0.0,
                1.0,
                0.0,
                0.0,
                0.0,
                0.0,
                1.0,
                0.0,
                -0.0081634521484375,
                -0.006450652610510588,
                0.5890945196151733,
                1.0
            ]
        },
        {
            "mesh": 3,
            "matrix": [
                1.0,
                0.0,
                0.0,
                0.0,
                0.0,
                1.0,
                0.0,
                0.0,
                0.0,
                0.0,
                1.0,
                0.0,
                -0.0081634521484375,
                -0.006450652610510588,
                0.5890945196151733,
                1.0
            ]
        }
    ],
    "meshes": [
        {
            "primitives": [
                {
                    "attributes": {
                        "NORMAL": 1,
                        "POSITION": 2,
                        "TEXCOORD_0": 3
                    },
                    "indices": 0,
                    "mode": 4,
                    "material": 0
                }
            ],
            "name": "____07"
        },
        {
            "primitives": [
                {
                    "attributes": {
                        "NORMAL": 5,
                        "POSITION": 6
                    },
                    "indices": 4,
                    "mode": 4,
                    "material": 1
                }
            ],
            "name": "____06"
        },
        {
            "primitives": [
                {
                    "attributes": {
                        "NORMAL": 8,
                        "POSITION": 9,
                        "TEXCOORD_0": 10
                    },
                    "indices": 7,
                    "mode": 4,
                    "material": 2
                }
            ],
            "name": "____05"
        },
        {
            "primitives": [
                {
                    "attributes": {
                        "NORMAL": 12,
                        "POSITION": 13
                    },
                    "indices": 11,
                    "mode": 4,
                    "material": 3
                }
            ],
            "name": "DX"
        }
    ],
    "accessors": [
        {
            "bufferView": 0,
            "byteOffset": 0,
            "componentType": 5123,
            "count": 426,
            "max": [
                167
            ],
            "min": [
                0
            ],
            "type": "SCALAR"
        },
        {
            "bufferView": 1,
            "byteOffset": 0,
            "componentType": 5126,
            "count": 168,
            "max": [
                0.0,
                0.0,
                1.0
            ],
            "min": [
                0.0,
                0.0,
                1.0
            ],
            "type": "VEC3"
        },
        {
            "bufferView": 1,
            "byteOffset": 2016,
            "componentType": 5126,
            "count": 168,
            "max": [
                309.4418029785156,
                311.5586853027344,
                -0.07986258715391159
            ],
            "min": [
                -122.93219757080078,
                -220.69029235839845,
                -0.07986258715391159
            ],
            "type": "VEC3"
        },
        {
            "bufferView": 2,
            "byteOffset": 0,
            "componentType": 5126,
            "count": 168,
            "max": [
                78.19603729248047,
                43.7817497253418
            ],
            "min": [
                -77.19603729248047,
                -42.78173828125
            ],
            "type": "VEC2"
        },
        {
            "bufferView": 0,
            "byteOffset": 852,
            "componentType": 5123,
            "count": 582,
            "max": [
                322
            ],
            "min": [
                0
            ],
            "type": "SCALAR"
        },
        {
            "bufferView": 1,
            "byteOffset": 4032,
            "componentType": 5126,
            "count": 323,
            "max": [
                0.00010977399506373332,
                0.000010698799997044262,
                1.0
            ],
            "min": [
                -0.00003543429920682684,
                -0.00002542709989938885,
                1.0
            ],
            "type": "VEC3"
        },
        {
            "bufferView": 1,
            "byteOffset": 7908,
            "componentType": 5126,
            "count": 323,
            "max": [
                268.6580200195313,
                297.6123046875,
                0.07014690339565277
            ],
            "min": [
                -93.02401733398438,
                -201.67250061035157,
                -0.07987499237060547
            ],
            "type": "VEC3"
        },
        {
            "bufferView": 0,
            "byteOffset": 2016,
            "componentType": 5123,
            "count": 576,
            "max": [
                202
            ],
            "min": [
                0
            ],
            "type": "SCALAR"
        },
        {
            "bufferView": 1,
            "byteOffset": 11784,
            "componentType": 5126,
            "count": 203,
            "max": [
                0.09238199144601822,
                0.19811390340328217,
                1.0
            ],
            "min": [
                -0.05054882913827896,
                -0.10840220004320145,
                -1.0
            ],
            "type": "VEC3"
        },
        {
            "bufferView": 1,
            "byteOffset": 14220,
            "componentType": 5126,
            "count": 203,
            "max": [
                307.1760864257813,
                310.502197265625,
                -0.07986258715391159
            ],
            "min": [
                -120.66639709472656,
                -219.63369750976566,
                -3.2555220127105719
            ],
            "type": "VEC3"
        },
        {
            "bufferView": 2,
            "byteOffset": 1344,
            "componentType": 5126,
            "count": 203,
            "max": [
                78.19602966308594,
                42.94841003417969
            ],
            "min": [
                -77.19602966308594,
                -41.94841003417969
            ],
            "type": "VEC2"
        },
        {
            "bufferView": 0,
            "byteOffset": 3168,
            "componentType": 5123,
            "count": 6222,
            "max": [
                3924
            ],
            "min": [
                0
            ],
            "type": "SCALAR"
        },
        {
            "bufferView": 1,
            "byteOffset": 16656,
            "componentType": 5126,
            "count": 3925,
            "max": [
                0.9999648332595824,
                0.9999536871910096,
                1.0
            ],
            "min": [
                -0.9999380111694336,
                -0.999211311340332,
                -1.0
            ],
            "type": "VEC3"
        },
        {
            "bufferView": 1,
            "byteOffset": 63756,
            "componentType": 5126,
            "count": 3925,
            "max": [
                307.2182922363281,
                310.5928039550781,
                2.0
            ],
            "min": [
                -120.6875,
                -219.67901611328129,
                -3.2555220127105719
            ],
            "type": "VEC3"
        }
    ],
    "materials": [
        {
            "pbrMetallicRoughness": {
                "baseColorTexture": {
                    "index": 0
                },
                "metallicFactor": 0.0
            },
            "emissiveFactor": [
                0.0,
                0.0,
                0.0
            ],
            "occlusionTexture": {
                "index": 0
            },
            "name": "M-______02"
        },
        {
            "pbrMetallicRoughness": {
                "baseColorFactor": [
                    0.5882353186607361,
                    0.5882353186607361,
                    0.5882353186607361,
                    1.0
                ],
                "metallicFactor": 0.0
            },
            "emissiveFactor": [
                0.0,
                0.0,
                0.0
            ],
            "name": "_1_-_Default"
        },
        {
            "pbrMetallicRoughness": {
                "baseColorTexture": {
                    "index": 1
                },
                "metallicFactor": 0.0
            },
            "emissiveFactor": [
                0.0,
                0.0,
                0.0
            ],
            "occlusionTexture": {
                "index": 1
            },
            "name": "M-_____1"
        },
        {
            "pbrMetallicRoughness": {
                "baseColorFactor": [
                    0.5882353186607361,
                    0.5882353186607361,
                    0.5882353186607361,
                    1.0
                ],
                "metallicFactor": 0.0
            },
            "emissiveFactor": [
                0.0,
                0.0,
                0.0
            ],
            "name": "_1_-_Default"
        }
    ],
    "textures": [
        {
            "sampler": 0,
            "source": 0
        },
        {
            "sampler": 0,
            "source": 1
        }
    ],
    "images": [
        {
            "uri": "data:image/jpeg;base64,"
        },
        {
            "uri": "data:image/jpeg;base64,"
        }
    ],
    "samplers": [
        {
            "magFilter": 9729,
            "minFilter": 9986,
            "wrapS": 10497,
            "wrapT": 10497
        }
    ],
    "bufferViews": [
        {
            "buffer": 0,
            "byteOffset": 113824,
            "byteLength": 15612,
            "target": 34963
        },
        {
            "buffer": 0,
            "byteOffset": 0,
            "byteLength": 110856,
            "byteStride": 12,
            "target": 34962
        },
        {
            "buffer": 0,
            "byteOffset": 110856,
            "byteLength": 2968,
            "byteStride": 8,
            "target": 34962
        }
    ],
    "buffers": [
        {
            "byteLength": 129436,
            "uri": "data:application/octet-stream;base64,"
        }
    ]
}
